<?xml version="1.0" encoding="utf-8"?>
<!-- Uploaded to: SVG Repo, www.svgrepo.com, Generator: SVG Repo Mixer Tools -->
<svg width="800px" height="800px" viewBox="0 -17.5 1059 1059" class="icon"  version="1.1" xmlns="http://www.w3.org/2000/svg"><path d="M100.937143 880.64H1012.297143V475.428571c0-54.125714 4.388571-99.474286-45.348572-99.474285h-716.8c-58.514286 0-112.64 45.348571-114.102857 99.474285L119.954286 766.537143c-4.388571 36.571429-10.24 74.605714-19.017143 114.102857z" fill="#EC748B" /><path d="M1012.297143 890.88H100.937143c-2.925714 0-5.851429-1.462857-8.777143-4.388571-1.462857-1.462857-1.462857-4.388571-1.462857-7.314286 8.777143-38.034286 14.628571-76.068571 19.017143-114.102857l13.165714-289.645715c2.925714-59.977143 59.977143-109.714286 125.805714-109.714285h716.8c17.554286 0 29.257143 4.388571 39.497143 13.165714 17.554286 17.554286 17.554286 48.274286 17.554286 84.845714v416.914286c0 5.851429-4.388571 10.24-10.24 10.24zM114.102857 870.4h887.954286V463.725714c0-30.72 0-58.514286-11.702857-70.217143-5.851429-5.851429-13.165714-7.314286-24.868572-7.314285h-716.8c-54.125714 0-102.4 40.96-103.862857 89.234285l-14.628571 291.108572c-4.388571 35.108571-8.777143 70.217143-16.091429 103.862857z" fill="#141515" /><path d="M133.12 495.908571l-14.628571 217.965715H397.897143V599.771429c0-57.051429-46.811429-103.862857-103.862857-103.862858h-160.914286z" fill="#90CED9" /><path d="M409.6 725.577143H108.251429l16.091428-238.445714H295.497143c62.902857 0 114.102857 51.2 114.102857 114.102857v124.342857zM130.194286 705.097143h258.925714V599.771429c0-51.2-42.422857-93.622857-93.622857-93.622858H143.36l-13.165714 198.948572z" fill="#141515" /><path d="M80.457143 879.177143H997.668571c13.165714 0 24.868571-2.925714 24.868572-7.314286v-106.788571c0-4.388571-11.702857-7.314286-24.868572-7.314286H122.88l-42.422857 121.417143z" fill="#FAD311" /><path d="M997.668571 889.417143H80.457143c-2.925714 0-5.851429-1.462857-8.777143-4.388572-1.462857-2.925714-2.925714-5.851429-1.462857-8.777142l40.96-119.954286c1.462857-4.388571 5.851429-7.314286 10.24-7.314286H997.668571c10.24 0 35.108571 1.462857 35.108572 17.554286v106.788571c0 14.628571-24.868571 16.091429-35.108572 16.091429zM95.085714 868.937143H997.668571c5.851429 0 11.702857-1.462857 14.628572-1.462857v-96.548572c-2.925714-1.462857-7.314286-1.462857-14.628572-1.462857H130.194286l-35.108572 99.474286z" fill="#141515" /><path d="M994.742857 820.662857l26.331429-14.628571 27.794285-16.091429V852.845714l-27.794285-16.091428z" fill="#6E7377" /><path d="M1048.868571 863.085714c-1.462857 0-2.925714 0-5.851428-1.462857l-54.125714-32.182857c-2.925714-1.462857-5.851429-5.851429-5.851429-8.777143 0-4.388571 1.462857-7.314286 5.851429-8.777143l54.125714-32.182857c2.925714-1.462857 7.314286-1.462857 10.24 0 2.925714 1.462857 5.851429 5.851429 5.851428 8.777143v62.902857c0 4.388571-1.462857 7.314286-5.851428 8.777143-1.462857 2.925714-2.925714 2.925714-4.388572 2.925714z m-33.645714-42.422857l23.405714 13.165714v-27.794285l-23.405714 14.628571z" fill="#141515" /><path d="M495.908571 495.908571h155.062858c32.182857 0 57.051429 26.331429 57.051428 57.051429v326.217143H437.394286V554.422857c0-32.182857 26.331429-58.514286 58.514285-58.514286z" fill="#FCDD10" /><path d="M708.022857 890.88H437.394286c-5.851429 0-10.24-4.388571-10.24-10.24V554.422857c0-38.034286 30.72-67.291429 68.754285-67.291428h153.6c38.034286 0 68.754286 30.72 68.754286 67.291428v326.217143c0 4.388571-4.388571 10.24-10.24 10.24z m-260.388571-21.942857h248.685714V554.422857c0-26.331429-21.942857-46.811429-46.811429-46.811428H495.908571c-26.331429 0-46.811429 21.942857-46.811428 46.811428v314.514286z" fill="#141515" /><path d="M212.114286 911.36m-62.902857 0a62.902857 62.902857 0 1 0 125.805714 0 62.902857 62.902857 0 1 0-125.805714 0Z" fill="#A1A69C" /><path d="M212.114286 984.502857c-40.96 0-73.142857-32.182857-73.142857-73.142857s32.182857-73.142857 73.142857-73.142857 73.142857 32.182857 73.142857 73.142857c-1.462857 40.96-33.645714 73.142857-73.142857 73.142857z m0-125.805714c-29.257143 0-52.662857 23.405714-52.662857 52.662857s23.405714 52.662857 52.662857 52.662857 52.662857-23.405714 52.662857-52.662857c-1.462857-29.257143-24.868571-52.662857-52.662857-52.662857z" fill="#141515" /><path d="M367.177143 911.36m-62.902857 0a62.902857 62.902857 0 1 0 125.805714 0 62.902857 62.902857 0 1 0-125.805714 0Z" fill="#A1A69C" /><path d="M367.177143 984.502857c-40.96 0-73.142857-32.182857-73.142857-73.142857s32.182857-73.142857 73.142857-73.142857 73.142857 32.182857 73.142857 73.142857-32.182857 73.142857-73.142857 73.142857z m0-125.805714c-29.257143 0-52.662857 23.405714-52.662857 52.662857s23.405714 52.662857 52.662857 52.662857 52.662857-23.405714 52.662857-52.662857-23.405714-52.662857-52.662857-52.662857z" fill="#141515" /><path d="M212.114286 911.36m-29.257143 0a29.257143 29.257143 0 1 0 58.514286 0 29.257143 29.257143 0 1 0-58.514286 0Z" fill="#DAD9B4" /><path d="M212.114286 950.857143c-21.942857 0-39.497143-17.554286-39.497143-39.497143 0-21.942857 17.554286-39.497143 39.497143-39.497143s39.497143 17.554286 39.497143 39.497143c0 21.942857-17.554286 39.497143-39.497143 39.497143z m0-58.514286c-10.24 0-19.017143 8.777143-19.017143 19.017143 0 10.24 8.777143 19.017143 19.017143 19.017143 10.24 0 19.017143-8.777143 19.017143-19.017143 0-10.24-8.777143-19.017143-19.017143-19.017143z" fill="#141515" /><path d="M367.177143 911.36m-29.257143 0a29.257143 29.257143 0 1 0 58.514286 0 29.257143 29.257143 0 1 0-58.514286 0Z" fill="#DAD9B4" /><path d="M367.177143 950.857143c-21.942857 0-39.497143-17.554286-39.497143-39.497143 0-21.942857 17.554286-39.497143 39.497143-39.497143 21.942857 0 39.497143 17.554286 39.497143 39.497143 1.462857 21.942857-17.554286 39.497143-39.497143 39.497143z m0-58.514286c-10.24 0-19.017143 8.777143-19.017143 19.017143 0 10.24 8.777143 19.017143 19.017143 19.017143 10.24 0 19.017143-8.777143 19.017143-19.017143 0-10.24-7.314286-19.017143-19.017143-19.017143z" fill="#141515" /><path d="M782.628571 911.36m-62.902857 0a62.902857 62.902857 0 1 0 125.805715 0 62.902857 62.902857 0 1 0-125.805715 0Z" fill="#A1A69C" /><path d="M782.628571 984.502857c-40.96 0-73.142857-32.182857-73.142857-73.142857s32.182857-73.142857 73.142857-73.142857 73.142857 32.182857 73.142858 73.142857-33.645714 73.142857-73.142858 73.142857z m0-125.805714c-29.257143 0-52.662857 23.405714-52.662857 52.662857s23.405714 52.662857 52.662857 52.662857 52.662857-23.405714 52.662858-52.662857-23.405714-52.662857-52.662858-52.662857z" fill="#141515" /><path d="M939.154286 911.36m-62.902857 0a62.902857 62.902857 0 1 0 125.805714 0 62.902857 62.902857 0 1 0-125.805714 0Z" fill="#A1A69C" /><path d="M939.154286 984.502857c-40.96 0-73.142857-32.182857-73.142857-73.142857s32.182857-73.142857 73.142857-73.142857 73.142857 32.182857 73.142857 73.142857-33.645714 73.142857-73.142857 73.142857z m0-125.805714c-29.257143 0-52.662857 23.405714-52.662857 52.662857s23.405714 52.662857 52.662857 52.662857 52.662857-23.405714 52.662857-52.662857c-1.462857-29.257143-24.868571-52.662857-52.662857-52.662857z" fill="#141515" /><path d="M782.628571 911.36m-29.257142 0a29.257143 29.257143 0 1 0 58.514285 0 29.257143 29.257143 0 1 0-58.514285 0Z" fill="#DAD9B4" /><path d="M782.628571 950.857143c-21.942857 0-39.497143-17.554286-39.497142-39.497143 0-21.942857 17.554286-39.497143 39.497142-39.497143 21.942857 0 39.497143 17.554286 39.497143 39.497143 0 21.942857-17.554286 39.497143-39.497143 39.497143z m0-58.514286c-10.24 0-19.017143 8.777143-19.017142 19.017143 0 10.24 8.777143 19.017143 19.017142 19.017143 10.24 0 19.017143-8.777143 19.017143-19.017143 0-10.24-8.777143-19.017143-19.017143-19.017143z" fill="#141515" /><path d="M939.154286 911.36m-29.257143 0a29.257143 29.257143 0 1 0 58.514286 0 29.257143 29.257143 0 1 0-58.514286 0Z" fill="#DAD9B4" /><path d="M939.154286 950.857143c-21.942857 0-39.497143-17.554286-39.497143-39.497143 0-21.942857 17.554286-39.497143 39.497143-39.497143 21.942857 0 39.497143 17.554286 39.497143 39.497143 0 21.942857-17.554286 39.497143-39.497143 39.497143z m0-58.514286c-10.24 0-19.017143 8.777143-19.017143 19.017143 0 10.24 8.777143 19.017143 19.017143 19.017143 10.24 0 19.017143-8.777143 19.017143-19.017143 0-10.24-8.777143-19.017143-19.017143-19.017143z" fill="#141515" /><path d="M491.52 544.182857c11.702857 0 21.942857 13.165714 21.942857 29.257143V819.2c0 16.091429-10.24 29.257143-21.942857 29.257143s-21.942857-13.165714-21.942857-29.257143V573.44c0-16.091429 10.24-29.257143 21.942857-29.257143z" fill="#EDA127" /><path d="M491.52 860.16c-17.554286 0-32.182857-17.554286-32.182857-39.497143V573.44c0-21.942857 14.628571-39.497143 32.182857-39.497143 17.554286 0 32.182857 17.554286 32.182857 39.497143V819.2c0 21.942857-14.628571 40.96-32.182857 40.96z m0-305.737143c-5.851429 0-11.702857 8.777143-11.702857 19.017143V819.2c0 10.24 5.851429 19.017143 11.702857 19.017143s11.702857-8.777143 11.702857-19.017143V573.44c0-10.24-5.851429-19.017143-11.702857-19.017143z" fill="#141515" /><path d="M571.977143 544.182857c11.702857 0 21.942857 13.165714 21.942857 29.257143V819.2c0 16.091429-10.24 29.257143-21.942857 29.257143s-21.942857-13.165714-21.942857-29.257143V573.44c1.462857-16.091429 10.24-29.257143 21.942857-29.257143z" fill="#EDA127" /><path d="M571.977143 860.16c-17.554286 0-32.182857-17.554286-32.182857-39.497143V573.44c0-21.942857 14.628571-39.497143 32.182857-39.497143 17.554286 0 32.182857 17.554286 32.182857 39.497143V819.2c0 21.942857-13.165714 40.96-32.182857 40.96z m0-305.737143c-5.851429 0-11.702857 8.777143-11.702857 19.017143V819.2c0 10.24 5.851429 19.017143 11.702857 19.017143s11.702857-8.777143 11.702857-19.017143V573.44c0-10.24-5.851429-19.017143-11.702857-19.017143z" fill="#141515" /><path d="M653.897143 544.182857c11.702857 0 21.942857 13.165714 21.942857 29.257143V819.2c0 16.091429-10.24 29.257143-21.942857 29.257143s-21.942857-13.165714-21.942857-29.257143V573.44c0-16.091429 10.24-29.257143 21.942857-29.257143z" fill="#EDA127" /><path d="M653.897143 860.16c-17.554286 0-32.182857-17.554286-32.182857-39.497143V573.44c0-21.942857 14.628571-39.497143 32.182857-39.497143s32.182857 17.554286 32.182857 39.497143V819.2c0 21.942857-14.628571 40.96-32.182857 40.96z m0-305.737143c-5.851429 0-11.702857 8.777143-11.702857 19.017143V819.2c0 10.24 5.851429 19.017143 11.702857 19.017143s11.702857-8.777143 11.702857-19.017143V573.44c0-10.24-5.851429-19.017143-11.702857-19.017143z" fill="#141515" /><path d="M794.331429 495.908571H1012.297143v217.965715H754.834286V536.868571c0-21.942857 17.554286-40.96 39.497143-40.96z" fill="#90CED9" /><path d="M1022.537143 725.577143h-277.942857V536.868571c0-27.794286 23.405714-51.2 51.2-51.2h226.742857v239.908572z m-257.462857-20.48h236.982857V507.611429H794.331429c-16.091429 0-30.72 13.165714-30.72 30.72v166.765714z" fill="#141515" /><path d="M583.68 359.862857c-1.462857 0-4.388571 0-5.851429-1.462857L362.788571 207.725714c-2.925714-1.462857-4.388571-4.388571-4.388571-8.777143s1.462857-5.851429 4.388571-8.777142L577.828571 40.96c2.925714-2.925714 8.777143-2.925714 11.702858 0L804.571429 190.171429c2.925714 1.462857 4.388571 4.388571 4.388571 8.777142s-1.462857 5.851429-4.388571 8.777143L589.531429 358.4c-1.462857 0-2.925714 1.462857-5.851429 1.462857z m-197.485714-160.914286L583.68 336.457143l197.485714-137.508572-197.485714-136.045714-197.485714 136.045714z" fill="#141515" /><path d="M378.88 332.068571h387.657143v43.885715H378.88z" fill="#6E7377" /><path d="M766.537143 386.194286H378.88c-5.851429 0-10.24-4.388571-10.24-10.24v-43.885715c0-5.851429 4.388571-10.24 10.24-10.24h387.657143c5.851429 0 10.24 4.388571 10.24 10.24v43.885715c0 5.851429-4.388571 10.24-10.24 10.24zM389.12 365.714286h367.177143v-23.405715H389.12V365.714286z" fill="#141515" /><path d="M226.742857 495.908571h30.72v217.965715h-30.72z" fill="#EC748B" /><path d="M257.462857 725.577143h-30.72c-5.851429 0-10.24-4.388571-10.24-10.24v-219.428572c0-5.851429 4.388571-10.24 10.24-10.24h30.72c5.851429 0 10.24 4.388571 10.24 10.24v217.965715c0 5.851429-5.851429 11.702857-10.24 11.702857zM236.982857 703.634286h10.24V506.148571H236.982857v197.485715z" fill="#141515" /><path d="M845.531429 495.908571h30.72v217.965715h-30.72z" fill="#EC748B" /><path d="M876.251429 725.577143h-30.72c-5.851429 0-10.24-4.388571-10.24-10.24v-219.428572c0-5.851429 4.388571-10.24 10.24-10.24h30.72c5.851429 0 10.24 4.388571 10.24 10.24v217.965715c0 5.851429-4.388571 11.702857-10.24 11.702857z m-20.48-21.942857h10.24V506.148571h-10.24v197.485715z" fill="#141515" /><path d="M980.114286 495.908571h30.72v217.965715h-30.72z" fill="#EC748B" /><path d="M1010.834286 725.577143h-30.72c-5.851429 0-10.24-4.388571-10.24-10.24v-219.428572c0-5.851429 4.388571-10.24 10.24-10.24h30.72c5.851429 0 10.24 4.388571 10.24 10.24v217.965715c0 5.851429-4.388571 11.702857-10.24 11.702857z m-20.48-21.942857h10.24V506.148571h-10.24v197.485715z" fill="#141515" /><path d="M582.217143 343.771429c-5.851429 0-10.24-4.388571-10.24-10.24V58.514286c0-5.851429 4.388571-10.24 10.24-10.24s10.24 4.388571 10.24 10.24v275.017143c0 5.851429-4.388571 10.24-10.24 10.24z" fill="#141515" /><path d="M121.417143 768m-46.811429 0a46.811429 46.811429 0 1 0 93.622857 0 46.811429 46.811429 0 1 0-93.622857 0Z" fill="#FFEE69" /><path d="M121.417143 825.051429c-30.72 0-57.051429-24.868571-57.051429-57.051429 0-30.72 24.868571-57.051429 57.051429-57.051429s57.051429 24.868571 57.051428 57.051429-26.331429 57.051429-57.051428 57.051429z m0-92.16c-20.48 0-36.571429 16.091429-36.571429 36.571428s16.091429 36.571429 36.571429 36.571429 36.571429-16.091429 36.571428-36.571429-17.554286-36.571429-36.571428-36.571428z" fill="#141515" /><path d="M36.571429 639.268571c-5.851429 0-10.24-4.388571-10.24-10.24v-62.902857c0-40.96 38.034286-74.605714 84.845714-74.605714h29.257143c5.851429 0 10.24 4.388571 10.24 10.24 0 5.851429-4.388571 10.24-10.24 10.24h-29.257143C76.068571 512 46.811429 535.405714 46.811429 564.662857V629.028571c0 5.851429-4.388571 10.24-10.24 10.24z" fill="#141515" /><path d="M10.24 608.548571v-42.422857c0-11.702857 10.24-20.48 23.405714-20.48h7.314286c13.165714 0 23.405714 8.777143 23.405714 20.48v42.422857c0 11.702857-10.24 20.48-23.405714 20.48h-7.314286c-13.165714 0-23.405714-8.777143-23.405714-20.48z" fill="#6E7377" /><path d="M40.96 639.268571h-7.314286c-19.017143 0-33.645714-13.165714-33.645714-30.72v-42.422857c0-16.091429 14.628571-30.72 33.645714-30.72h7.314286c19.017143 0 33.645714 13.165714 33.645714 30.72v42.422857c1.462857 16.091429-14.628571 30.72-33.645714 30.72zM33.645714 555.885714c-7.314286 0-13.165714 4.388571-13.165714 10.24v42.422857c0 5.851429 5.851429 10.24 13.165714 10.24h7.314286c7.314286 0 13.165714-4.388571 13.165714-10.24v-42.422857c0-5.851429-5.851429-10.24-13.165714-10.24h-7.314286z" fill="#141515" /></svg>