<?xml version="1.0" encoding="iso-8859-1"?>
<!-- Uploaded to: SVG Repo, www.svgrepo.com, Generator: SVG Repo Mixer Tools -->
<svg height="800px" width="800px" version="1.1" id="Layer_1" xmlns="http://www.w3.org/2000/svg" xmlns:xlink="http://www.w3.org/1999/xlink" 
	 viewBox="0 0 484.328 484.328" xml:space="preserve">
<g>
	<path style="fill:#8CD76E;" d="M349.289,57.369c0,65.972-18.71,119.453-41.789,119.453c-23.08,0-41.789-53.481-41.789-119.453
		S349.289-8.603,349.289,57.369z"/>
	<path style="fill:#8CD76E;" d="M426.953,135.034c-65.972,0-119.453,18.71-119.453,41.789c0,23.08,53.481,41.79,119.453,41.79
		S492.925,135.034,426.953,135.034z"/>
</g>
<path style="fill:#A5EB78;" d="M421.516,121.907c-46.649,46.649-97.696,71.236-114.016,54.917
	c-16.32-16.32,8.268-67.367,54.917-114.016S468.165,75.257,421.516,121.907z"/>
<path style="fill:#FF8A3A;" d="M329.294,165.184c-3.515-3.255-6.899-6.639-10.154-10.154
	C218.892,46.76-47.152,401.023,18.075,466.249C83.299,531.474,437.564,265.43,329.294,165.184z"/>
<g style="opacity:0.1;">
	<path d="M341.464,180.185c-3.109-5.325-7.137-10.344-12.169-15.003c-3.515-3.255-6.899-6.639-10.154-10.154
		C218.892,46.76-47.152,401.023,18.075,466.249c6.47,6.47,15.794,9.671,27.221,10.106
		C41.545,377.956,243.572,123.03,341.464,180.185z"/>
</g>
<path d="M296.52,269.765c-1.092,0-2.199-0.227-3.257-0.707c-8.341-3.785-17.583-10.517-26.023-18.956
	c-8.319-8.319-14.999-17.445-18.807-25.696c-1.828-3.959-0.1-8.651,3.861-10.478c3.959-1.827,8.651-0.098,10.478,3.861
	c3.004,6.508,8.702,14.215,15.635,21.148c7.028,7.028,14.821,12.765,21.382,15.742c3.971,1.802,5.73,6.482,3.928,10.453
	C302.394,268.041,299.523,269.765,296.52,269.765z"/>
<path d="M196.348,288.241c-1.092,0-2.2-0.227-3.259-0.707c-8.343-3.786-17.583-10.518-26.023-18.956
	c-8.319-8.321-14.999-17.446-18.807-25.696c-1.828-3.959-0.1-8.651,3.861-10.478c3.96-1.828,8.651-0.1,10.478,3.861
	c3.003,6.506,8.702,14.215,15.635,21.148c7.027,7.027,14.82,12.765,21.382,15.742c3.971,1.802,5.73,6.482,3.928,10.453
	C202.222,286.518,199.351,288.241,196.348,288.241z"/>
<path d="M184.586,381.697c-1.15,0-2.318-0.252-3.425-0.786c-6.437-3.104-13.619-8.451-20.222-15.054
	c-6.508-6.508-11.809-13.598-14.929-19.968c-1.919-3.916-0.3-8.646,3.616-10.565c3.915-1.919,8.646-0.3,10.565,3.616
	c2.34,4.777,6.684,10.517,11.916,15.749c5.304,5.304,11.105,9.677,15.916,11.996c3.928,1.894,5.577,6.613,3.682,10.542
	C190.344,380.051,187.524,381.697,184.586,381.697z"/>
<path d="M97.364,409.251c-1.15,0-2.318-0.252-3.425-0.786c-6.437-3.104-13.619-8.451-20.222-15.054
	c-6.508-6.509-11.81-13.6-14.929-19.968c-1.919-3.916-0.3-8.646,3.616-10.565c3.915-1.918,8.646-0.3,10.565,3.616
	c2.34,4.775,6.684,10.515,11.916,15.749c5.304,5.304,11.105,9.677,15.916,11.996c3.928,1.894,5.577,6.613,3.682,10.541
	C103.122,407.604,100.302,409.251,97.364,409.251z"/>
<path d="M48.033,484.308c-15.304,0-27.257-4.197-35.542-12.482c-32.268-32.268,3.191-112.944,47.135-177.686
	c2.451-3.609,7.36-4.547,10.968-2.099c3.609,2.449,4.548,7.359,2.099,10.968c-49.204,72.49-69.368,137.317-49.035,157.65
	c5.339,5.339,13.815,7.98,25.165,7.851c25.876-0.296,63.787-14.653,106.749-40.427c42.138-25.28,85.298-59.659,118.411-94.324
	c3.012-3.154,8.011-3.267,11.164-0.256c3.154,3.012,3.267,8.011,0.256,11.164c-34.55,36.167-77.773,70.601-121.707,96.959
	c-45.326,27.192-86.057,42.349-114.691,42.675C48.679,484.307,48.354,484.308,48.033,484.308z"/>
<path d="M427.428,127.144c12.053-12.188,18.621-26.185,18.987-40.514c0.336-13.184-4.593-25.561-13.879-34.847
	c-9.286-9.286-21.65-14.213-34.847-13.879c-14.327,0.367-28.327,6.935-40.515,18.988c-0.115-20.13-7.468-36.833-20.752-47.06
	c-11.57-8.91-26.922-11.993-41.067-8.256c-4.216,1.115-6.729,5.435-5.615,9.652c1.115,4.215,5.435,6.728,9.652,5.615
	c9.444-2.496,19.683-0.439,27.397,5.5c9.419,7.251,14.606,19.688,14.606,35.022c0,5.592-0.144,11.235-0.425,16.807
	c-9.892,11.301-18.512,22.702-25.572,33.751V56.751c0-4.36-3.536-7.896-7.896-7.896c-4.36,0-7.896,3.535-7.896,7.896v75.059
	c-5.615-2.285-11.57-3.79-17.835-4.542c-5.279-19.99-8.163-44.564-8.163-69.905c0-6.638,0.958-12.747,2.846-18.156
	c1.436-4.117-0.736-8.619-4.853-10.057c-4.117-1.436-8.619,0.736-10.057,4.853c-2.474,7.088-3.728,14.947-3.728,23.362
	c0,24.895,2.683,49.195,7.615,69.649c-26.831,2.114-57.484,16.238-91.198,42.094c-30.58,23.451-61.944,55.342-90.703,92.222
	c-2.682,3.439-2.067,8.401,1.371,11.083s8.401,2.067,11.083-1.371c60.257-77.275,126.705-126.506,173.415-128.485
	c1.98-0.084,3.912-0.073,5.808,0.006c0.029,0.001,0.055,0.01,0.084,0.011c9.837,0.446,18.796,3.202,26.624,8.192
	c0.004,0.003,0.008,0.004,0.012,0.007c2.978,1.901,5.827,4.147,8.514,6.69c0.101,0.095,0.203,0.187,0.304,0.284
	c0.886,0.85,1.755,1.728,2.601,2.643c1.684,1.818,3.414,3.614,5.178,5.379c0.004,0.004,0.007,0.01,0.011,0.014
	c0.004,0.004,0.01,0.007,0.014,0.011c0.595,0.595,1.214,1.161,1.815,1.748c1.183,1.153,2.359,2.315,3.565,3.432
	c0.839,0.776,1.64,1.576,2.424,2.384c0.202,0.209,0.403,0.419,0.601,0.63c0.708,0.751,1.396,1.514,2.056,2.292
	c0.165,0.195,0.322,0.392,0.484,0.588c0.515,0.623,1.007,1.254,1.49,1.892c0.328,0.434,0.652,0.87,0.963,1.31
	c0.149,0.209,0.288,0.422,0.435,0.632c26.058,37.963-8.357,92.789-32.736,123.664c-2.702,3.422-2.119,8.387,1.303,11.089
	c1.45,1.146,3.174,1.701,4.889,1.701c2.332,0,4.643-1.03,6.202-3.003c27.912-35.345,43.067-67.623,45.285-95.256
	c20.451,4.928,44.741,7.611,69.627,7.611c37.667,0,57.375-24.995,57.375-49.685C484.328,152.234,464.782,127.356,427.428,127.144z
	 M316.244,139.548c0.246-0.576,0.491-1.151,0.753-1.734c0.378-0.843,0.775-1.694,1.183-2.552c0.172-0.36,0.343-0.721,0.519-1.083
	c0.498-1.025,1.013-2.058,1.553-3.101c0.071-0.138,0.144-0.277,0.216-0.415c5.186-9.962,12.17-20.72,20.524-31.601
	c0.001-0.001,0.001-0.003,0.003-0.004c1.046-1.362,2.113-2.725,3.201-4.089c0.025-0.032,0.051-0.064,0.078-0.095
	c3.267-4.095,6.72-8.195,10.332-12.263c0.018-0.021,0.032-0.046,0.05-0.066c4.238-4.771,8.696-9.508,13.345-14.157
	c20.203-20.204,41.827-16.981,53.37-5.438c6.196,6.195,9.484,14.462,9.259,23.276c-0.264,10.337-5.345,20.743-14.695,30.093
	c-4.647,4.647-9.382,9.104-14.15,13.341c-0.024,0.021-0.051,0.035-0.075,0.057c-16.324,14.503-33.152,26.398-48.162,34.197
	c-0.083,0.043-0.166,0.087-0.249,0.129c-1.086,0.562-2.159,1.096-3.226,1.615c-0.32,0.155-0.638,0.306-0.955,0.457
	c-0.894,0.426-1.781,0.839-2.658,1.232c-0.54,0.241-1.071,0.468-1.605,0.696c-0.545,0.235-1.089,0.469-1.627,0.69
	c-0.19-0.245-0.392-0.483-0.585-0.726c-0.818-1.027-1.666-2.041-2.55-3.039c-0.381-0.429-0.765-0.854-1.157-1.276
	c-0.469-0.506-0.937-1.013-1.425-1.511c-0.69-0.706-1.396-1.4-2.117-2.085l62.592-62.592c3.084-3.084,3.084-8.084,0-11.167
	c-3.083-3.084-8.083-3.084-11.167,0l-62.59,62.59c-0.149-0.156-0.304-0.306-0.454-0.461c-1.081-1.121-2.182-2.199-3.303-3.232
	c-0.191-0.176-0.379-0.356-0.572-0.53c-0.594-0.537-1.194-1.059-1.799-1.572c-0.205-0.173-0.411-0.345-0.617-0.515
	c-0.625-0.519-1.252-1.036-1.889-1.53C315.801,140.578,316.023,140.063,316.244,139.548z M426.953,210.712
	c-25.332,0-49.898-2.881-69.887-8.157c-0.751-6.246-2.257-12.205-4.553-17.839h75.052c4.36,0,7.896-3.535,7.896-7.896
	c0-4.36-3.535-7.896-7.896-7.896h-51.173c11.051-7.06,22.453-15.681,33.755-25.575c5.574-0.281,11.213-0.425,16.804-0.425
	c28.57,0,41.583,17.57,41.583,33.894S455.523,210.712,426.953,210.712z"/>
</svg>