<?xml version="1.0" encoding="utf-8"?>
<!-- Uploaded to: SVG Repo, www.svgrepo.com, Generator: SVG Repo Mixer Tools -->
<svg width="800px" height="800px" viewBox="0 0 1024 1024" class="icon"  version="1.1" xmlns="http://www.w3.org/2000/svg"><path d="M133.12 533.942857c55.588571 0 100.937143-45.348571 100.937143-100.937143s-45.348571-100.937143-100.937143-100.937143c-55.588571 0-100.937143 45.348571-100.937143 100.937143 0 55.588571 45.348571 100.937143 100.937143 100.937143z" fill="#90CED9" /><path d="M133.12 544.182857c-61.44 0-111.177143-49.737143-111.177143-111.177143S71.68 321.828571 133.12 321.828571s111.177143 49.737143 111.177143 111.177143-49.737143 111.177143-111.177143 111.177143z m0-201.874286c-49.737143 0-90.697143 40.96-90.697143 90.697143s40.96 90.697143 90.697143 90.697143 90.697143-40.96 90.697143-90.697143-40.96-90.697143-90.697143-90.697143z" fill="#141515" /><path d="M691.931429 769.462857c159.451429 0 289.645714-109.714286 289.645714-244.297143s-130.194286-244.297143-289.645714-244.297143S402.285714 392.045714 402.285714 526.628571s130.194286 242.834286 289.645715 242.834286z" fill="#FAD311" /><path d="M691.931429 779.702857c-165.302857 0-299.885714-114.102857-299.885715-254.537143S526.628571 270.628571 691.931429 270.628571s299.885714 114.102857 299.885714 254.537143c-1.462857 140.434286-136.045714 254.537143-299.885714 254.537143z m0-487.131428c-153.6 0-279.405714 105.325714-279.405715 232.594285 0 128.731429 124.342857 232.594286 279.405715 232.594286 153.6 0 279.405714-105.325714 279.405714-232.594286-1.462857-127.268571-125.805714-232.594286-279.405714-232.594285z" fill="#141515" /><path d="M691.931429 282.331429c159.451429 0 289.645714 109.714286 289.645714 244.297142 0 19.017143-2.925714 39.497143-8.777143 57.051429H817.737143c-84.845714 0-153.6-68.754286-153.6-153.6v-146.285714c8.777143-1.462857 17.554286-1.462857 27.794286-1.462857z" fill="#90CED9" /><path d="M972.8 593.92H817.737143c-90.697143 0-163.84-73.142857-163.84-163.84v-146.285714c0-5.851429 4.388571-10.24 10.24-10.24 177.005714-14.628571 327.68 105.325714 327.68 253.074285 0 20.48-2.925714 40.96-8.777143 59.977143-1.462857 4.388571-5.851429 7.314286-10.24 7.314286zM674.377143 294.034286v137.508571c0 78.994286 64.365714 143.36 143.36 143.36H965.485714c4.388571-16.091429 5.851429-30.72 5.851429-46.811428 0-128.731429-124.342857-232.594286-279.405714-232.594286-5.851429-2.925714-11.702857-2.925714-17.554286-1.462857z" fill="#141515" /><path d="M784.091429 295.497143c14.628571 4.388571 27.794286 8.777143 40.96 14.628571v273.554286h-8.777143c-11.702857 0-21.942857-1.462857-33.645715-2.925714V295.497143h1.462858z" fill="#EDA127" /><path d="M825.051429 593.92h-8.777143c-11.702857 0-23.405714-1.462857-35.108572-4.388571-4.388571-1.462857-8.777143-5.851429-8.777143-10.24V295.497143c0-2.925714 1.462857-5.851429 4.388572-8.777143 2.925714-1.462857 5.851429-2.925714 8.777143-1.462857 14.628571 4.388571 29.257143 8.777143 42.422857 16.091428 4.388571 1.462857 5.851429 5.851429 5.851428 8.777143v273.554286c1.462857 5.851429-2.925714 10.24-8.777142 10.24z m-30.72-21.942857c7.314286 1.462857 13.165714 1.462857 20.48 1.462857V317.44c-7.314286-2.925714-13.165714-5.851429-20.48-7.314286v261.851429z" fill="#141515" /><path d="M134.582857 566.125714l150.674286-23.405714 115.565714-19.017143v1.462857c0 42.422857 13.165714 81.92 35.108572 117.028572l-152.137143-23.405715-150.674286-23.405714v-29.257143h1.462857z" fill="#EDA127" /><path d="M437.394286 653.897143h-1.462857L133.12 605.622857c-4.388571-1.462857-8.777143-5.851429-8.777143-10.24v-29.257143c0-4.388571 4.388571-8.777143 8.777143-10.24l266.24-42.422857c2.925714 0 5.851429 0 8.777143 2.925714 2.925714 1.462857 2.925714 4.388571 2.925714 7.314286v1.462857c0 38.034286 11.702857 76.068571 32.182857 109.714286 1.462857 1.462857 2.925714 4.388571 2.925715 7.314286 1.462857 7.314286-2.925714 11.702857-8.777143 11.702857z m-292.571429-67.291429L416.914286 629.028571c-14.628571-29.257143-23.405714-61.44-26.331429-93.622857L144.822857 574.902857v11.702857z" fill="#141515" /><path d="M136.045714 592.457143c-5.851429 0-10.24-4.388571-10.24-10.24v-112.64c0-5.851429 4.388571-10.24 10.24-10.24s10.24 4.388571 10.24 10.24v112.64c0 5.851429-4.388571 10.24-10.24 10.24zM686.08 947.931429c-5.851429 0-10.24-4.388571-10.24-10.24V769.462857c0-5.851429 4.388571-10.24 10.24-10.24s10.24 4.388571 10.24 10.24v168.228572c0 5.851429-4.388571 10.24-10.24 10.24zM492.982857 947.931429c-1.462857 0-4.388571 0-5.851428-1.462858-4.388571-2.925714-5.851429-10.24-2.925715-14.628571l122.88-174.08c2.925714-4.388571 10.24-5.851429 14.628572-2.925714 4.388571 2.925714 5.851429 10.24 2.925714 14.628571l-122.88 174.08c-1.462857 2.925714-4.388571 4.388571-8.777143 4.388572zM886.491429 947.931429c-2.925714 0-5.851429-1.462857-8.777143-4.388572l-122.88-174.08c-2.925714-4.388571-1.462857-11.702857 2.925714-14.628571 4.388571-2.925714 11.702857-1.462857 14.628571 2.925714l122.88 174.08c2.925714 4.388571 1.462857 11.702857-2.925714 14.628571-1.462857 1.462857-2.925714 1.462857-5.851428 1.462858z" fill="#141515" /><path d="M686.08 925.988571m-38.034286 0a38.034286 38.034286 0 1 0 76.068572 0 38.034286 38.034286 0 1 0-76.068572 0Z" fill="#A1A69C" /><path d="M686.08 972.8c-26.331429 0-48.274286-21.942857-48.274286-48.274286s21.942857-48.274286 48.274286-48.274285 48.274286 21.942857 48.274286 48.274285c0 27.794286-21.942857 48.274286-48.274286 48.274286z m0-74.605714c-14.628571 0-27.794286 11.702857-27.794286 27.794285 0 14.628571 11.702857 27.794286 27.794286 27.794286 14.628571 0 27.794286-11.702857 27.794286-27.794286s-13.165714-27.794286-27.794286-27.794285z" fill="#141515" /><path d="M497.371429 925.988571m-38.034286 0a38.034286 38.034286 0 1 0 76.068571 0 38.034286 38.034286 0 1 0-76.068571 0Z" fill="#A1A69C" /><path d="M497.371429 972.8c-26.331429 0-48.274286-21.942857-48.274286-48.274286s21.942857-48.274286 48.274286-48.274285 48.274286 21.942857 48.274285 48.274285c0 27.794286-21.942857 48.274286-48.274285 48.274286z m0-74.605714c-14.628571 0-27.794286 11.702857-27.794286 27.794285 0 14.628571 11.702857 27.794286 27.794286 27.794286 14.628571 0 27.794286-11.702857 27.794285-27.794286s-13.165714-27.794286-27.794285-27.794285z" fill="#141515" /><path d="M879.177143 925.988571m-38.034286 0a38.034286 38.034286 0 1 0 76.068572 0 38.034286 38.034286 0 1 0-76.068572 0Z" fill="#A1A69C" /><path d="M879.177143 972.8c-26.331429 0-48.274286-21.942857-48.274286-48.274286s21.942857-48.274286 48.274286-48.274285 48.274286 21.942857 48.274286 48.274285c-1.462857 27.794286-21.942857 48.274286-48.274286 48.274286z m0-74.605714c-14.628571 0-27.794286 11.702857-27.794286 27.794285 0 14.628571 11.702857 27.794286 27.794286 27.794286 14.628571 0 27.794286-11.702857 27.794286-27.794286-1.462857-16.091429-13.165714-27.794286-27.794286-27.794285z" fill="#141515" /><path d="M665.6 339.382857c-5.851429 0-10.24-4.388571-10.24-10.24V160.914286c0-5.851429 4.388571-10.24 10.24-10.24s10.24 4.388571 10.24 10.24v168.228571c0 5.851429-4.388571 10.24-10.24 10.24z" fill="#141515" /><path d="M133.12 433.005714m-38.034286 0a38.034286 38.034286 0 1 0 76.068572 0 38.034286 38.034286 0 1 0-76.068572 0Z" fill="#A1A69C" /><path d="M133.12 481.28c-26.331429 0-48.274286-21.942857-48.274286-48.274286s21.942857-48.274286 48.274286-48.274285c26.331429 0 48.274286 21.942857 48.274286 48.274285s-21.942857 48.274286-48.274286 48.274286z m0-76.068571c-14.628571 0-27.794286 11.702857-27.794286 27.794285 0 14.628571 11.702857 27.794286 27.794286 27.794286 14.628571 0 27.794286-11.702857 27.794286-27.794286 0-14.628571-13.165714-27.794286-27.794286-27.794285z" fill="#141515" /><path d="M655.36 127.268571L819.2 77.531429c231.131429-70.217143 231.131429 168.228571 0 99.474285L655.36 127.268571z" fill="#A1A69C" /><path d="M896.731429 198.948571c-5.851429 0-10.24-4.388571-10.24-10.24s4.388571-10.24 10.24-10.24c58.514286 0 84.845714-26.331429 84.845714-52.662857 0-24.868571-26.331429-52.662857-84.845714-52.662857-5.851429 0-10.24-4.388571-10.24-10.24s4.388571-10.24 10.24-10.24c71.68 0 105.325714 38.034286 105.325714 73.142857 0 36.571429-33.645714 73.142857-105.325714 73.142857z" fill="#141515" /><path d="M658.285714 127.268571L494.445714 77.531429C263.314286 7.314286 263.314286 245.76 494.445714 177.005714L658.285714 127.268571z" fill="#A1A69C" /><path d="M415.451429 198.948571c-71.68 0-105.325714-38.034286-105.325715-73.142857s32.182857-73.142857 105.325715-73.142857c5.851429 0 10.24 4.388571 10.24 10.24s-4.388571 10.24-10.24 10.24c-58.514286 0-84.845714 26.331429-84.845715 52.662857 0 24.868571 26.331429 52.662857 84.845715 52.662857 5.851429 0 10.24 4.388571 10.24 10.24s-4.388571 10.24-10.24 10.24z" fill="#141515" /><path d="M664.137143 128.731429m-42.422857 0a42.422857 42.422857 0 1 0 84.845714 0 42.422857 42.422857 0 1 0-84.845714 0Z" fill="#EDA127" /><path d="M664.137143 181.394286c-29.257143 0-52.662857-23.405714-52.662857-52.662857s23.405714-52.662857 52.662857-52.662858S716.8 99.474286 716.8 128.731429s-23.405714 52.662857-52.662857 52.662857z m0-86.308572c-17.554286 0-32.182857 14.628571-32.182857 32.182857s14.628571 32.182857 32.182857 32.182858 32.182857-14.628571 32.182857-32.182858-14.628571-32.182857-32.182857-32.182857z" fill="#141515" /><path d="M683.154286 588.068571H471.04c-5.851429 0-10.24-4.388571-10.24-10.24s4.388571-10.24 10.24-10.24h212.114286c5.851429 0 10.24 4.388571 10.24 10.24s-4.388571 10.24-10.24 10.24z" fill="#141515" /></svg>