<?xml version="1.0" encoding="utf-8"?>
<!-- Uploaded to: SVG Repo, www.svgrepo.com, Generator: SVG Repo Mixer Tools -->
<svg width="800px" height="800px" viewBox="0 0 1024 1024" class="icon"  version="1.1" xmlns="http://www.w3.org/2000/svg"><path d="M770.925714 479.817143h99.474286c65.828571 0 119.954286 59.977143 119.954286 131.657143v223.817143H365.714286v-102.4c5.851429 4.388571 14.628571 7.314286 21.942857 7.314285h348.16c19.017143 0 35.108571-16.091429 35.108571-35.108571V479.817143z" fill="#FAD311" /><path d="M988.891429 846.994286H364.251429c-5.851429 0-10.24-4.388571-10.24-10.24v-102.4c0-4.388571 1.462857-7.314286 5.851428-8.777143 2.925714-1.462857 7.314286-1.462857 10.24 0 4.388571 2.925714 10.24 4.388571 16.091429 4.388571h348.16c14.628571 0 24.868571-10.24 24.868571-24.868571V479.817143c0-5.851429 4.388571-10.24 10.24-10.24h99.474286c71.68 0 130.194286 64.365714 130.194286 143.36v223.817143c1.462857 4.388571-4.388571 10.24-10.24 10.24z m-612.937143-21.942857h602.697143V611.474286c0-67.291429-49.737143-121.417143-109.714286-121.417143h-89.234286v215.04c0 24.868571-20.48 45.348571-45.348571 45.348571H386.194286c-4.388571 0-7.314286 0-11.702857-1.462857l1.462857 76.068572z" fill="#141515" /><path d="M365.714286 794.331429h624.64v40.96H365.714286z" fill="#EDA127" /><path d="M988.891429 846.994286H364.251429c-5.851429 0-10.24-4.388571-10.24-10.24v-40.96c0-5.851429 4.388571-10.24 10.24-10.24h624.64c5.851429 0 10.24 4.388571 10.24 10.24v40.96c1.462857 4.388571-4.388571 10.24-10.24 10.24z m-612.937143-21.942857h602.697143V804.571429H374.491429l1.462857 20.48zM734.354286 751.908571H386.194286c-14.628571 0-29.257143-7.314286-38.034286-17.554285-7.314286-8.777143-10.24-19.017143-8.777143-29.257143l71.68-394.971429c11.702857-68.754286 58.514286-112.64 117.028572-112.64h191.634285c32.182857 0 59.977143 26.331429 59.977143 58.514286v450.56c1.462857 24.868571-19.017143 45.348571-45.348571 45.348571z m-204.8-533.942857c-58.514286 0-89.234286 51.2-96.548572 95.085715l-71.68 394.971428c-1.462857 5.851429 1.462857 10.24 4.388572 13.165714 4.388571 5.851429 13.165714 10.24 21.942857 10.24h348.16c14.628571 0 24.868571-10.24 24.868571-24.868571V256c0-20.48-17.554286-38.034286-38.034285-38.034286H529.554286z" fill="#141515" /><path d="M770.925714 592.457143v114.102857c0 19.017143-16.091429 35.108571-35.108571 35.108571H552.96v-106.788571c0-23.405714 19.017143-40.96 43.885714-40.96h174.08v-1.462857z" fill="#7E8495" /><path d="M734.354286 751.908571H551.497143c-5.851429 0-10.24-4.388571-10.24-10.24v-106.788571c0-27.794286 24.868571-51.2 54.125714-51.2h175.542857c5.851429 0 10.24 4.388571 10.24 10.24v114.102857c0 23.405714-20.48 43.885714-46.811428 43.885714z m-172.617143-21.942857h172.617143c14.628571 0 24.868571-10.24 24.868571-24.868571v-103.862857H593.92c-19.017143 0-33.645714 13.165714-33.645714 30.72l1.462857 98.011428z" fill="#141515" /><path d="M868.937143 933.302857c48.274286 0 87.771429-39.497143 87.771428-87.771428s-39.497143-87.771429-87.771428-87.771429-87.771429 39.497143-87.771429 87.771429 39.497143 87.771429 87.771429 87.771428z" fill="#A1A69C" /><path d="M868.937143 943.542857a98.011429 98.011429 0 1 1 0-196.022857 98.011429 98.011429 0 0 1 0 196.022857z m0-175.542857c-42.422857 0-77.531429 35.108571-77.531429 77.531429s35.108571 77.531429 77.531429 77.531428 77.531429-35.108571 77.531428-77.531428-33.645714-77.531429-77.531428-77.531429z" fill="#141515" /><path d="M868.937143 845.531429m-40.96 0a40.96 40.96 0 1 0 81.92 0 40.96 40.96 0 1 0-81.92 0Z" fill="#DAD9B4" /><path d="M868.937143 896.731429c-29.257143 0-51.2-23.405714-51.2-51.2 0-29.257143 23.405714-51.2 51.2-51.2 29.257143 0 51.2 23.405714 51.2 51.2 1.462857 27.794286-21.942857 51.2-51.2 51.2z m0-81.92c-17.554286 0-30.72 14.628571-30.72 30.72 0 17.554286 14.628571 30.72 30.72 30.72 17.554286 0 30.72-14.628571 30.72-30.72 1.462857-17.554286-13.165714-30.72-30.72-30.72z" fill="#141515" /><path d="M674.377143 512v-108.251429c0-10.24 8.777143-17.554286 17.554286-17.554285h16.091428c10.24 0 17.554286 8.777143 17.554286 17.554285V512c0 10.24-8.777143 17.554286-17.554286 17.554286h-16.091428c-10.24 0-17.554286-7.314286-17.554286-17.554286z" fill="#606366" /><path d="M708.022857 539.794286h-16.091428c-16.091429 0-27.794286-13.165714-27.794286-27.794286v-108.251429c0-16.091429 13.165714-27.794286 27.794286-27.794285h16.091428c16.091429 0 27.794286 13.165714 27.794286 27.794285V512c0 16.091429-13.165714 27.794286-27.794286 27.794286zM691.931429 394.971429c-4.388571 0-7.314286 2.925714-7.314286 7.314285v108.251429c0 4.388571 2.925714 7.314286 7.314286 7.314286h16.091428c4.388571 0 7.314286-2.925714 7.314286-7.314286v-106.788572c0-4.388571-2.925714-7.314286-7.314286-7.314285h-16.091428V394.971429z" fill="#141515" /><path d="M567.588571 520.777143h141.897143c13.165714 0 23.405714 10.24 23.405715 23.405714v20.48c0 13.165714-10.24 23.405714-23.405715 23.405714h-141.897143c-13.165714 0-23.405714-10.24-23.405714-23.405714v-20.48c0-13.165714 10.24-23.405714 23.405714-23.405714z" fill="#606366" /><path d="M709.485714 598.308571h-141.897143c-19.017143 0-33.645714-14.628571-33.645714-33.645714v-20.48c0-19.017143 14.628571-33.645714 33.645714-33.645714h141.897143c19.017143 0 33.645714 14.628571 33.645715 33.645714v20.48c0 19.017143-14.628571 33.645714-33.645715 33.645714z m-141.897143-67.291428c-7.314286 0-13.165714 5.851429-13.165714 13.165714v20.48c0 7.314286 5.851429 13.165714 13.165714 13.165714h141.897143c7.314286 0 13.165714-5.851429 13.165715-13.165714v-20.48c0-7.314286-5.851429-13.165714-13.165715-13.165714h-141.897143z" fill="#141515" /><path d="M361.325714 744.594286c-1.462857 0-2.925714 0-4.388571-1.462857-5.851429-2.925714-7.314286-8.777143-5.851429-13.165715l118.491429-282.331428c2.925714-5.851429 8.777143-7.314286 13.165714-5.851429 5.851429 2.925714 7.314286 8.777143 5.851429 13.165714l-118.491429 282.331429c-1.462857 4.388571-4.388571 7.314286-8.777143 7.314286z" fill="#141515" /><path d="M550.034286 462.262857h-112.64c-5.851429 0-10.24-4.388571-10.24-10.24s4.388571-10.24 10.24-10.24h112.64c5.851429 0 10.24 4.388571 10.24 10.24s-4.388571 10.24-10.24 10.24z" fill="#141515" /><path d="M307.2 90.697143h42.422857c5.851429 0 11.702857 10.24 11.702857 23.405714v689.005714c0 13.165714-5.851429 23.405714-11.702857 23.405715H307.2c-5.851429 0-11.702857-10.24-11.702857-23.405715V114.102857c0-13.165714 4.388571-23.405714 11.702857-23.405714z" fill="#606366" /><path d="M348.16 836.754286h-42.422857c-13.165714 0-21.942857-14.628571-21.942857-33.645715V114.102857c0-20.48 8.777143-33.645714 21.942857-33.645714h42.422857c13.165714 0 21.942857 14.628571 21.942857 33.645714v689.005714c0 19.017143-8.777143 33.645714-21.942857 33.645715z m-39.497143-20.48h38.034286c1.462857-1.462857 2.925714-5.851429 2.925714-13.165715V114.102857c0-7.314286-1.462857-11.702857-2.925714-13.165714h-38.034286c-1.462857 1.462857-2.925714 5.851429-2.925714 13.165714v689.005714c0 7.314286 1.462857 11.702857 2.925714 13.165715z" fill="#141515" /><path d="M71.68 794.331429h254.537143v40.96H71.68z" fill="#606366" /><path d="M327.68 846.994286H71.68c-5.851429 0-10.24-4.388571-10.24-10.24v-40.96c0-5.851429 4.388571-10.24 10.24-10.24h254.537143c5.851429 0 10.24 4.388571 10.24 10.24v40.96c1.462857 4.388571-2.925714 10.24-8.777143 10.24zM83.382857 825.051429h234.057143V804.571429h-234.057143v20.48z" fill="#141515" /><path d="M368.64 933.302857c48.274286 0 87.771429-39.497143 87.771429-87.771428s-39.497143-87.771429-87.771429-87.771429-87.771429 39.497143-87.771429 87.771429 39.497143 87.771429 87.771429 87.771428z" fill="#A1A69C" /><path d="M368.64 943.542857a98.011429 98.011429 0 1 1 0-196.022857 98.011429 98.011429 0 0 1 0 196.022857z m0-175.542857c-42.422857 0-77.531429 35.108571-77.531429 77.531429s35.108571 77.531429 77.531429 77.531428 77.531429-35.108571 77.531429-77.531428-35.108571-77.531429-77.531429-77.531429z" fill="#141515" /><path d="M368.64 845.531429m-40.96 0a40.96 40.96 0 1 0 81.92 0 40.96 40.96 0 1 0-81.92 0Z" fill="#DAD9B4" /><path d="M368.64 896.731429c-29.257143 0-51.2-23.405714-51.2-51.2 0-29.257143 23.405714-51.2 51.2-51.2 29.257143 0 51.2 23.405714 51.2 51.2s-21.942857 51.2-51.2 51.2z m0-81.92c-17.554286 0-30.72 14.628571-30.72 30.72 0 17.554286 14.628571 30.72 30.72 30.72 17.554286 0 30.72-14.628571 30.72-30.72 0-17.554286-13.165714-30.72-30.72-30.72z" fill="#141515" /><path d="M939.154286 604.16h-136.045715c-5.851429 0-10.24-4.388571-10.24-10.24 0-5.851429 4.388571-10.24 10.24-10.24h136.045715c5.851429 0 10.24 4.388571 10.24 10.24 0 5.851429-4.388571 10.24-10.24 10.24z" fill="#141515" /><path d="M33.645714 454.948571H248.685714v332.068572H33.645714z" fill="#DAD9B4" /><path d="M248.685714 798.72H33.645714c-5.851429 0-10.24-4.388571-10.24-10.24V456.411429c0-5.851429 4.388571-10.24 10.24-10.24H248.685714c5.851429 0 10.24 4.388571 10.24 10.24v332.068571c0 5.851429-4.388571 10.24-10.24 10.24zM43.885714 778.24h193.097143V466.651429H43.885714v311.588571z" fill="#141515" /><path d="M92.16 504.685714h125.805714v90.697143H92.16z" fill="#FEFEFE" /><path d="M217.965714 605.622857H92.16c-5.851429 0-10.24-4.388571-10.24-10.24v-90.697143c0-5.851429 4.388571-10.24 10.24-10.24h125.805714c5.851429 0 10.24 4.388571 10.24 10.24v90.697143c0 5.851429-4.388571 10.24-10.24 10.24zM102.4 585.142857h105.325714v-70.217143H102.4V585.142857z" fill="#141515" /></svg>